<svg version="1.1"  xmlns="http://www.w3.org/2000/svg" xmlns:xlink="http://www.w3.org/1999/xlink" viewBox="-804.004727 -1395.564627 2244.000000 1498.584604" xml:space="preserve"><image x="-804.004727" y="-1395.564627" width="2244.000000" height="1498.584604" xlink:href="https://raw.githubusercontent.com/JLGJOSH/SynopticPanelGallery/main/010101_SVG%Floor%Plans_Level%1.png"></image><path id="355889" d="M 451.809490 -590.028908 L 375.186855 -590.028908 L 375.186855 -590.028908 L 321.454478 -575.631361 L 282.119648 -536.296531 L 267.722101 -482.564153 L 267.722101 -482.564153 L 267.722101 -405.967354 L 267.722101 -405.967354 L 329.084564 -405.967354 L 390.447027 -405.967354 L 451.809490 -405.967354 L 451.809490 -405.967354 L 451.809490 -467.321205 L 451.809490 -528.675057 L 451.809490 -590.028908" style="fill:lime;stroke:black;stroke-width:0.125;fill-rule:evenodd;"/><path id="355895" d="M 287.792383 -819.433281 L 282.774813 -762.082187 L 277.757242 -704.731094 L 277.757242 -704.731094 L 324.915961 -671.710204 L 372.074679 -638.689314 L 372.074679 -638.689314 L 424.250968 -663.019517 L 476.427257 -687.349720 L 476.427257 -687.349720 L 481.444827 -744.700813 L 486.462398 -802.051907 L 486.462398 -802.051907 L 439.303679 -835.072797 L 392.144961 -868.093687 L 392.144961 -868.093687 L 339.968672 -843.763484 L 287.792383 -819.433281" style="fill:lime;stroke:black;stroke-width:0.125;fill-rule:evenodd;"/><path id="355898" d="M 231.165121 -862.948485 L 172.957453 -873.212068 L 114.749786 -883.475650 L 114.749786 -883.475650 L 76.757429 -838.198122 L 38.765072 -792.920594 L 38.765072 -792.920594 L 58.980383 -737.379484 L 79.195694 -681.838374 L 79.195694 -681.838374 L 137.403361 -671.574792 L 195.611029 -661.311209 L 195.611029 -661.311209 L 233.603386 -706.588737 L 271.595743 -751.866265 L 271.595743 -751.866265 L 251.380432 -807.407375 L 231.165121 -862.948485" style="fill:lime;stroke:black;stroke-width:0.125;fill-rule:evenodd;"/><path id="355901" d="M 147.600216 -456.354882 L 134.642423 -504.714022 L 99.241076 -540.115369 L 50.881937 -553.073161 L 2.522797 -540.115369 L -32.878550 -504.714022 L -45.836342 -456.354882 L -45.836342 -456.354882 L -32.878550 -407.995743 L 2.522797 -372.594396 L 50.881937 -359.636604 L 99.241076 -372.594396 L 134.642423 -407.995743 L 147.600216 -456.354882 M 52.780995 -492.982193 L 87.992984 -468.326493 L 87.992984 -468.326493 L 52.780995 -492.982193 M 17.044831 -455.350041 L 35.536606 -481.759033" style="fill:lime;stroke:black;stroke-width:0.125;fill-rule:evenodd;"/><path id="355907" d="M -133.674366 -936.520452 L -133.674366 -839.802173 L -133.674366 -839.802173 L -38.256150 -839.802173 L -38.256150 -839.802173 L -38.256150 -936.520452 L -38.256150 -936.520452 L -133.674366 -936.520452" style="fill:lime;stroke:black;stroke-width:0.125;fill-rule:evenodd;"/><path id="355910" d="M -133.674366 -839.802173 L -133.674366 -936.520452 L -133.674366 -936.520452 L -187.840098 -936.520452 L -242.005829 -936.520452 L -296.171561 -936.520452 L -296.171561 -936.520452 L -296.171561 -839.802173 L -296.171561 -839.802173 L -242.005829 -839.802173 L -187.840098 -839.802173 L -133.674366 -839.802173" style="fill:lime;stroke:black;stroke-width:0.125;fill-rule:evenodd;"/><path id="355913" d="M -195.574577 -772.393430 L -281.546380 -772.393430 L -281.546380 -772.393430 L -281.546380 -686.421626 L -281.546380 -686.421626 L -195.574577 -686.421626 L -195.574577 -686.421626 L -195.574577 -772.393430" style="fill:lime;stroke:black;stroke-width:0.125;fill-rule:evenodd;"/><path id="355916" d="M -440.587524 -994.051634 L -440.587524 -936.737099 L -440.587524 -879.422563 L -440.587524 -822.108027 L -440.587524 -764.793492 L -440.587524 -707.478956 L -440.587524 -650.164420 L -440.587524 -650.164420 L -389.435331 -641.144909 L -338.283138 -632.125397 L -287.130945 -623.105885 L -235.978752 -614.086374 L -184.826559 -605.066862 L -133.674366 -596.047350 L -133.674366 -596.047350 L -133.674366 -656.986056 L -133.674366 -717.924762 L -133.674366 -778.863467 L -133.674366 -839.802173 L -133.674366 -839.802173 L -187.840098 -839.802173 L -242.005829 -839.802173 L -296.171561 -839.802173 L -296.171561 -839.802173 L -296.171561 -936.520452 L -296.171561 -936.520452 L -242.005829 -936.520452 L -187.840098 -936.520452 L -133.674366 -936.520452 L -133.674366 -936.520452 L -133.674366 -994.051634 L -133.674366 -994.051634 L -184.826559 -994.051634 L -235.978752 -994.051634 L -287.130945 -994.051634 L -338.283138 -994.051634 L -389.435331 -994.051634 L -440.587524 -994.051634 M -281.546380 -772.393430 L -195.574577 -772.393430 L -195.574577 -772.393430 L -195.574577 -686.421626 L -195.574577 -686.421626 L -281.546380 -686.421626 L -281.546380 -686.421626 L -281.546380 -772.393430" style="fill:lime;stroke:black;stroke-width:0.125;fill-rule:evenodd;"/><path id="356059" d="M 87.992984 -468.326493 L 52.780995 -492.982193 L 52.780995 -492.982193 L 87.992984 -468.326493" style="fill:lime;stroke:black;stroke-width:0.125;fill-rule:evenodd;"/><path id="356062" d="M 35.536606 -481.759033 L 17.044831 -455.350041" style="fill:lime;stroke:black;stroke-width:0.125;fill-rule:evenodd;"/><path id="356065" d="M 371.538168 -1001.543618 L 374.601602 -978.141465 L 397.869629 -949.191014 L 439.457213 -917.037658 L 495.995174 -884.286272 L 562.903144 -853.590177 L 634.760636 -827.436189 L 705.746183 -807.943148 L 770.108960 -796.690264 L 822.634676 -794.589180 L 859.068010 -801.810113 L 876.457351 -817.768065 L 876.457351 -817.768065 L 873.393917 -841.170218 L 850.125890 -870.120669 L 808.538306 -902.274025 L 752.000345 -935.025411 L 685.092375 -965.721506 L 613.234883 -991.875494 L 542.249336 -1011.368535 L 477.886559 -1022.621419 L 425.360843 -1024.722503 L 388.927509 -1017.501570 L 371.538168 -1001.543618" style="fill:lime;stroke:black;stroke-width:0.125;fill-rule:evenodd;"/><path id="356068" d="M 1021.372687 -839.802173 L 983.760023 -823.070537 L 956.225642 -777.358857 L 946.147359 -714.915540 L 956.225642 -652.472224 L 983.760023 -606.760544 L 1021.372687 -590.028908 L 1021.372687 -590.028908 L 1050.367536 -613.880132 L 1068.287338 -676.323449 L 1068.287338 -753.507632 L 1050.367536 -815.950949 L 1021.372687 -839.802173" style="fill:lime;stroke:black;stroke-width:0.125;fill-rule:evenodd;"/><path id="356153" d="M 1252.995273 -1270.682577 L 1202.454733 -1270.682577 L 1151.914192 -1270.682577 L 1101.373652 -1270.682577 L 1050.833111 -1270.682577 L 1000.292570 -1270.682577 L 949.752030 -1270.682577 L 899.211489 -1270.682577 L 848.670949 -1270.682577 L 798.130408 -1270.682577 L 747.589868 -1270.682577 L 697.049327 -1270.682577 L 646.508787 -1270.682577 L 595.968246 -1270.682577 L 545.427706 -1270.682577 L 494.887165 -1270.682577 L 444.346625 -1270.682577 L 393.806084 -1270.682577 L 343.265543 -1270.682577 L 292.725003 -1270.682577 L 242.184462 -1270.682577 L 191.643922 -1270.682577 L 141.103381 -1270.682577 L 90.562841 -1270.682577 L 40.022300 -1270.682577 L -10.518240 -1270.682577 L -61.058781 -1270.682577 L -111.599321 -1270.682577 L -162.139862 -1270.682577 L -212.680402 -1270.682577 L -263.220943 -1270.682577 L -313.761484 -1270.682577 L -364.302024 -1270.682577 L -414.842565 -1270.682577 L -465.383105 -1270.682577 L -515.923646 -1270.682577 L -566.464186 -1270.682577 L -617.004727 -1270.682577 L -617.004727 -1270.682577 L -617.004727 -1218.648389 L -617.004727 -1166.614202 L -617.004727 -1114.580014 L -617.004727 -1062.545826 L -617.004727 -1010.511639 L -617.004727 -958.477451 L -617.004727 -906.443263 L -617.004727 -854.409076 L -617.004727 -802.374888 L -617.004727 -750.340700 L -617.004727 -698.306513 L -617.004727 -646.272325 L -617.004727 -594.238137 L -617.004727 -542.203950 L -617.004727 -490.169762 L -617.004727 -438.135574 L -617.004727 -386.101387 L -617.004727 -334.067199 L -617.004727 -282.033012 L -617.004727 -229.998824 L -617.004727 -177.964636 L -617.004727 -125.930449 L -617.004727 -73.896261 L -617.004727 -21.862073 L -617.004727 -21.862073 L -566.464186 -21.862073 L -515.923646 -21.862073 L -465.383105 -21.862073 L -414.842565 -21.862073 L -364.302024 -21.862073 L -313.761484 -21.862073 L -263.220943 -21.862073 L -212.680402 -21.862073 L -162.139862 -21.862073 L -111.599321 -21.862073 L -61.058781 -21.862073 L -10.518240 -21.862073 L 40.022300 -21.862073 L 90.562841 -21.862073 L 141.103381 -21.862073 L 191.643922 -21.862073 L 242.184462 -21.862073 L 292.725003 -21.862073 L 343.265543 -21.862073 L 393.806084 -21.862073 L 444.346625 -21.862073 L 494.887165 -21.862073 L 545.427706 -21.862073 L 595.968246 -21.862073 L 646.508787 -21.862073 L 697.049327 -21.862073 L 747.589868 -21.862073 L 798.130408 -21.862073 L 848.670949 -21.862073 L 899.211489 -21.862073 L 949.752030 -21.862073 L 1000.292570 -21.862073 L 1050.833111 -21.862073 L 1101.373652 -21.862073 L 1151.914192 -21.862073 L 1202.454733 -21.862073 L 1252.995273 -21.862073 L 1252.995273 -21.862073 L 1252.995273 -73.896261 L 1252.995273 -125.930449 L 1252.995273 -177.964636 L 1252.995273 -229.998824 L 1252.995273 -282.033012 L 1252.995273 -334.067199 L 1252.995273 -386.101387 L 1252.995273 -438.135574 L 1252.995273 -490.169762 L 1252.995273 -542.203950 L 1252.995273 -594.238137 L 1252.995273 -646.272325 L 1252.995273 -698.306513 L 1252.995273 -750.340700 L 1252.995273 -802.374888 L 1252.995273 -854.409076 L 1252.995273 -906.443263 L 1252.995273 -958.477451 L 1252.995273 -1010.511639 L 1252.995273 -1062.545826 L 1252.995273 -1114.580014 L 1252.995273 -1166.614202 L 1252.995273 -1218.648389 L 1252.995273 -1270.682577 M 1021.372687 -590.028908 L 983.760023 -606.760544 L 956.225642 -652.472224 L 946.147359 -714.915540 L 956.225642 -777.358857 L 983.760023 -823.070537 L 1021.372687 -839.802173 L 1021.372687 -839.802173 L 1050.367536 -815.950949 L 1068.287338 -753.507632 L 1068.287338 -676.323449 L 1050.367536 -613.880132 L 1021.372687 -590.028908 M 876.457351 -817.768065 L 859.068010 -801.810113 L 822.634676 -794.589180 L 770.108960 -796.690264 L 705.746183 -807.943148 L 634.760636 -827.436189 L 562.903144 -853.590177 L 495.995174 -884.286272 L 439.457213 -917.037658 L 397.869629 -949.191014 L 374.601602 -978.141465 L 371.538168 -1001.543618 L 371.538168 -1001.543618 L 388.927509 -1017.501570 L 425.360843 -1024.722503 L 477.886559 -1022.621419 L 542.249336 -1011.368535 L 613.234883 -991.875494 L 685.092375 -965.721506 L 752.000345 -935.025411 L 808.538306 -902.274025 L 850.125890 -870.120669 L 873.393917 -841.170218 L 876.457351 -817.768065 M 375.186855 -590.028908 L 451.809490 -590.028908 L 451.809490 -590.028908 L 451.809490 -528.675057 L 451.809490 -467.321205 L 451.809490 -405.967354 L 451.809490 -405.967354 L 390.447027 -405.967354 L 329.084564 -405.967354 L 267.722101 -405.967354 L 267.722101 -405.967354 L 267.722101 -482.564153 L 267.722101 -482.564153 L 282.119648 -536.296531 L 321.454478 -575.631361 L 375.186855 -590.028908 M -45.836342 -456.354882 L -32.878550 -504.714022 L 2.522797 -540.115369 L 50.881937 -553.073161 L 99.241076 -540.115369 L 134.642423 -504.714022 L 147.600216 -456.354882 L 147.600216 -456.354882 L 134.642423 -407.995743 L 99.241076 -372.594396 L 50.881937 -359.636604 L 2.522797 -372.594396 L -32.878550 -407.995743 L -45.836342 -456.354882 M 277.757242 -704.731094 L 282.774813 -762.082187 L 287.792383 -819.433281 L 287.792383 -819.433281 L 339.968672 -843.763484 L 392.144961 -868.093687 L 392.144961 -868.093687 L 439.303679 -835.072797 L 486.462398 -802.051907 L 486.462398 -802.051907 L 481.444827 -744.700813 L 476.427257 -687.349720 L 476.427257 -687.349720 L 424.250968 -663.019517 L 372.074679 -638.689314 L 372.074679 -638.689314 L 324.915961 -671.710204 L 277.757242 -704.731094 M 114.749786 -883.475650 L 172.957453 -873.212068 L 231.165121 -862.948485 L 231.165121 -862.948485 L 251.380432 -807.407375 L 271.595743 -751.866265 L 271.595743 -751.866265 L 233.603386 -706.588737 L 195.611029 -661.311209 L 195.611029 -661.311209 L 137.403361 -671.574792 L 79.195694 -681.838374 L 79.195694 -681.838374 L 58.980383 -737.379484 L 38.765072 -792.920594 L 38.765072 -792.920594 L 76.757429 -838.198122 L 114.749786 -883.475650 M -440.587524 -650.164420 L -440.587524 -707.478956 L -440.587524 -764.793492 L -440.587524 -822.108027 L -440.587524 -879.422563 L -440.587524 -936.737099 L -440.587524 -994.051634 L -440.587524 -994.051634 L -389.435331 -994.051634 L -338.283138 -994.051634 L -287.130945 -994.051634 L -235.978752 -994.051634 L -184.826559 -994.051634 L -133.674366 -994.051634 L -133.674366 -994.051634 L -133.674366 -936.520452 L -133.674366 -936.520452 L -38.256150 -936.520452 L -38.256150 -936.520452 L -38.256150 -839.802173 L -38.256150 -839.802173 L -133.674366 -839.802173 L -133.674366 -839.802173 L -133.674366 -778.863467 L -133.674366 -717.924762 L -133.674366 -656.986056 L -133.674366 -596.047350 L -133.674366 -596.047350 L -184.826559 -605.066862 L -235.978752 -614.086374 L -287.130945 -623.105885 L -338.283138 -632.125397 L -389.435331 -641.144909 L -440.587524 -650.164420" style="fill:lime;stroke:black;stroke-width:0.125;fill-rule:evenodd;"/></svg>